<svg xml:space="preserve" id="svg103" version="1.1" viewBox="0 0 200 200">
  <defs id="defs64">
    <radialGradient id="e" cx="173.11" cy="50.610001" r="12.412" gradientTransform="matrix(.78555 .44895 -.55264 .96698 -.90525 -43.544)" gradientUnits="userSpaceOnUse">
      <stop id="stop8" offset="0" stop-color="#8e8e8e"/>
      <stop id="stop9" offset="1" stop-color="#fff" stop-opacity="0"/>
    </radialGradient>
    <radialGradient id="g" cx="161.67999" cy="28.903999" r="9.9280005" gradientTransform="matrix(.78627 -.57599 1.0601 1.4472 47.882 77.395)" gradientUnits="userSpaceOnUse">
      <stop id="stop16" offset="0" stop-color="#838383"/>
      <stop id="stop17" offset=".844" stop-color="#fff"/>
      <stop id="stop18" offset="1" stop-color="#fff" stop-opacity="0"/>
    </radialGradient>
    <radialGradient id="h" cx="185.36" cy="56.123001" r="14.238" gradientTransform="matrix(1.6146 .72692 -1.7005 3.7771 12.196 -297.26)" gradientUnits="userSpaceOnUse">
      <stop id="stop19" offset="0" stop-color="#fff"/>
      <stop id="stop20" offset=".417" stop-color="#7f7f7f"/>
      <stop id="stop21" offset="1"/>
    </radialGradient>
    <radialGradient id="i" cx="182.55" cy="56.493999" r="14.238" gradientTransform="matrix(.2594 -.26586 .07053 .06881 128.19 93.441)" gradientUnits="userSpaceOnUse">
      <stop id="stop22" offset=".198" stop-color="#fff"/>
      <stop id="stop23" offset="1" stop-color="#d9d9d9" stop-opacity="0"/>
    </radialGradient>
    <radialGradient id="k" cx="175.44" cy="27.122999" r="6.822" gradientTransform="matrix(1.2869 -.53482 .16387 .39429 -23.822 110.08)" gradientUnits="userSpaceOnUse">
      <stop id="stop24" offset=".454"/>
      <stop id="stop25" offset="1" stop-opacity="0"/>
    </radialGradient>
    <radialGradient id="l" cx="112.24" cy="141.59" r="3.704" gradientTransform="matrix(-2.1721 -10.251 -14.871 3.1512 2494.2 806.65)" gradientUnits="userSpaceOnUse">
      <stop id="stop26" offset="0" stop-color="#fff"/>
      <stop id="stop27" offset=".156" stop-color="#a6a6a6"/>
      <stop id="stop28" offset=".406" stop-color="#6a6a6a"/>
      <stop id="stop29" offset=".534" stop-color="#a6a6a6"/>
    </radialGradient>
    <radialGradient id="o" cx="111.43" cy="149.02" r="1.375" gradientTransform="matrix(6.6138 8.9679 -11.124 8.2039 1059.9 -2125.4)" gradientUnits="userSpaceOnUse">
      <stop id="stop38" offset=".386" stop-color="#b7b7b7" stop-opacity=".992"/>
      <stop id="stop39" offset=".702" stop-color="#5a5a5a"/>
    </radialGradient>
    <radialGradient id="p" cx="111.7" cy="142.45" r="3.704" gradientTransform="matrix(-2.0249 10.281 -9.2544 -1.8228 1652.4 -793.38)" gradientUnits="userSpaceOnUse">
      <stop id="stop40" offset=".094" stop-color="#767676"/>
      <stop id="stop41" offset=".746" stop-color="#d8d8d8"/>
      <stop id="stop42" offset=".84" stop-color="#6a6a6a"/>
      <stop id="stop43" offset=".951" stop-color="#969696" stop-opacity=".992"/>
    </radialGradient>
    <radialGradient id="r" cx="104.71" cy="163.84" r="1.673" gradientTransform="matrix(5.4387 1.1168 -2.1739 10.587 -113.29 -1668.6)" gradientUnits="userSpaceOnUse">
      <stop id="stop48" offset="0" stop-color="#b4b4b4"/>
      <stop id="stop49" offset=".917" stop-color="#333"/>
    </radialGradient>
    <radialGradient id="u" cx="111.37" cy="148.97" r="1.375" gradientTransform="matrix(-6.6138 8.9679 11.124 8.2039 -859.91 -2125.4)" gradientUnits="userSpaceOnUse">
      <stop id="stop58" offset=".386" stop-color="#fff" stop-opacity=".992"/>
      <stop id="stop59" offset=".702" stop-color="#c3c3c3"/>
    </radialGradient>
    <radialGradient id="x" cx="103.91" cy="40.386002" r="15.635" gradientTransform="matrix(.46689 .12423 -.67875 2.5508 164.82 -108.4)" gradientUnits="userSpaceOnUse">
      <stop id="stop60" offset="0" stop-color="#fff"/>
      <stop id="stop61" offset="1" stop-color="#fff" stop-opacity="0"/>
    </radialGradient>
    <linearGradient id="d" x1="142.88" x2="167.7" y1="6.085" y2="42.341" gradientTransform="translate(-39.28 12.081) scale(.97467)" gradientUnits="userSpaceOnUse">
      <stop id="stop1" offset="0" stop-color="#adadad"/>
      <stop id="stop2" offset=".1" stop-color="#909090"/>
      <stop id="stop3" offset=".264" stop-color="#fff"/>
      <stop id="stop4" offset=".391" stop-color="#8f8f8f"/>
      <stop id="stop5" offset=".484" stop-color="#fff"/>
      <stop id="stop6" offset=".729" stop-color="#909090"/>
      <stop id="stop7" offset="1" stop-color="#fff"/>
    </linearGradient>
    <linearGradient id="f" x1="72.735001" x2="72.735001" y1="13.672" y2="89.742996" gradientTransform="translate(-1.3408 -5.8066) scale(.97467)" gradientUnits="userSpaceOnUse">
      <stop id="stop10" offset=".175" stop-color="#fff" stop-opacity=".996"/>
      <stop id="stop11" offset=".482" stop-color="#d5d5d5" stop-opacity=".996"/>
      <stop id="stop12" offset=".517" stop-color="#afafaf" stop-opacity=".996"/>
      <stop id="stop13" offset=".577" stop-color="#fff" stop-opacity=".996"/>
      <stop id="stop14" offset=".754" stop-color="#fff" stop-opacity=".996"/>
      <stop id="stop15" offset="1" stop-color="#7b7b7b"/>
    </linearGradient>
    <linearGradient id="m" x1="105.16" x2="112.77" y1="146.7" y2="147.36" gradientTransform="matrix(-5.5522 0 0 5.5522 767.07 -729.48)" gradientUnits="userSpaceOnUse">
      <stop id="stop30" offset=".105" stop-color="#7a7a7a"/>
      <stop id="stop31" offset=".184" stop-color="#b9b9b9"/>
      <stop id="stop32" offset=".834" stop-color="#b7b7b7"/>
      <stop id="stop33" offset="1" stop-color="#fff"/>
    </linearGradient>
    <linearGradient id="n" x1="105.16" x2="112.77" y1="146.7" y2="147.36" gradientTransform="translate(-395.23 -729.48) scale(5.5522)" gradientUnits="userSpaceOnUse">
      <stop id="stop34" offset=".105" stop-color="#7a7a7a"/>
      <stop id="stop35" offset=".184" stop-color="#b9b9b9"/>
      <stop id="stop36" offset=".834" stop-color="#b7b7b7"/>
      <stop id="stop37" offset="1" stop-color="#9e9e9e"/>
    </linearGradient>
    <linearGradient id="q" x1="102.26" x2="102.85" y1="159.42" y2="151.64999" gradientTransform="matrix(-5.5522 0 0 5.5522 681.13 -729.48)" gradientUnits="userSpaceOnUse">
      <stop id="stop44" offset="0" stop-color="#c9c9c9"/>
      <stop id="stop45" offset=".2" stop-color="#8d8d8d" stop-opacity=".996"/>
      <stop id="stop46" offset=".344" stop-color="#bbb"/>
      <stop id="stop47" offset="1" stop-color="#c4c4c4" stop-opacity=".996"/>
    </linearGradient>
    <linearGradient id="s" x1="101.32" x2="104.67" y1="160.39999" y2="164.34" gradientTransform="translate(-481.17 -729.48) scale(5.5522)" gradientUnits="userSpaceOnUse">
      <stop id="stop50" offset="0" stop-color="#b4b4b4"/>
      <stop id="stop51" offset=".288" stop-color="#f4f4f4" stop-opacity=".992"/>
      <stop id="stop52" offset=".541" stop-color="#b4b4b4" stop-opacity=".992"/>
      <stop id="stop53" offset=".707" stop-color="#cecece" stop-opacity=".996"/>
      <stop id="stop54" offset="1" stop-color="#e9e9e9"/>
    </linearGradient>
    <linearGradient id="t" x1="102.35" x2="103.44" y1="160.36" y2="148.60001" gradientTransform="translate(-481.17 -729.48) scale(5.5522)" gradientUnits="userSpaceOnUse">
      <stop id="stop55" offset="0" stop-color="#c9c9c9"/>
      <stop id="stop56" offset=".154" stop-color="#fff"/>
      <stop id="stop57" offset="1" stop-color="#aaa"/>
    </linearGradient>
    <linearGradient id="y" x1="112.77" x2="96.570999" y1="155.91" y2="133.31" gradientTransform="translate(-395.23 -729.48) scale(5.5522)" gradientUnits="userSpaceOnUse">
      <stop id="stop62" offset="0" stop-color="#d2d2d2"/>
      <stop id="stop63" offset=".5" stop-color="#fff"/>
      <stop id="stop64" offset=".798" stop-color="silver"/>
    </linearGradient>
    <filter id="c" width="1.1960725" height="1.1214515" x="-.09803626" y="-.06072573" color-interpolation-filters="sRGB">
      <feGaussianBlur id="feGaussianBlur1" stdDeviation="4.439"/>
    </filter>
    <filter id="j" width="1.0290753" height="1.0128039" x="-.01453766" y="-.00640195" color-interpolation-filters="sRGB">
      <feGaussianBlur id="feGaussianBlur23" stdDeviation=".175"/>
    </filter>
    <filter id="a" width="1.3570548" height="1.1968402" x="-.17936883" y="-.1284549" color-interpolation-filters="sRGB">
      <feGaussianBlur id="feGaussianBlur59" stdDeviation="1.317"/>
    </filter>
    <filter id="b" width="1.5471058" height="1.4192891" x="-.32548375" y="-.22008279" color-interpolation-filters="sRGB">
      <feGaussianBlur id="feGaussianBlur60" stdDeviation="3.034"/>
    </filter>
    <mask id="w" maskUnits="userSpaceOnUse">
      <path id="path59" fill="#fff" fill-opacity=".996" stroke="#fcfcfc" stroke-linecap="square" stroke-width="4" d="M 65.85,9.404 C 62.706,6.596 59.21,4.199 57.25,0 L 46.825,8.016 c 4.567,-2.542 16.534,2.996 21.099,4.537 1.924,0.65 -3.995,-4.014 -2.074,-3.149 z m -12.157,29.202 -24.912,8.59 -2.516,-0.903 c 7.303,-2.182 19.162,-5.119 27.428,-7.687 z" filter="url(#b)" paint-order="markers fill stroke" style="mix-blend-mode:normal"/>
    </mask>
    <mask id="mask88" maskUnits="userSpaceOnUse">
      <g id="g64" transform="translate(-67.696 -3.3995) scale(1.026)">
        <path id="path64" fill="none" stroke="#fefefe" stroke-linecap="square" stroke-width="4" d="m 31.614,72.396 c -12.141,0.637 -13.048,3.3 -16.585,5.488 l 11.191,11.526 7.773,2.233 4.58,-13.277 z M 27.239,27.795 c -2.077,-0.83 -5.13,-5.584 -10.649,-9 l 7.246,0.193 2.385,2.427 1.786,-4.494 3.762,-0.04 3.206,-7.23 1.727,13.614 -6.873,-3.793 z m -0.652,8.583 C 23.835,34.407 15.03,27.795 10.055,27.188 l -0.077,1.72 c 1.975,5.032 11.682,1.642 16.608,7.47 z M 23.289,52.073 C 17.807,52.112 10.898,50.613 7.649,48.65 l 0.615,6.178 c 6.126,0.267 10.503,-0.754 15.025,-2.755 z" filter="url(#a)" paint-order="markers fill stroke" transform="translate(65.981 3.3134) scale(.97467)"/>
      </g>
    </mask>
  </defs>
  <path id="path65" d="M 84.82,89.79 H 45.67 c 5.545,5.26 11.346,10.405 13.175,17.323 11.023,-6.128 21.684,-8.437 34.304,-6.772 0.158,40.337 -0.431,53.28 -11.731,65.527 6.762,2.493 16.592,13.61 18.544,21.851 2.71,-9.719 12.962,-19.983 18.616,-21.864 -11.493,-11.555 -10.748,-25.475 -10.715,-65.689 12.474,-1.13 21.892,-0.175 33.264,6.954 1.756,-5.525 5.938,-11.282 13.213,-17.337 L 115.226,89.741 C 143.871,58.194 130.408,17.199 100.032,12.281 69.607,16.029 57.44,59.011 84.82,89.791 Z M 99.977,27.812 c 16.082,6.595 21.845,42.292 -0.001,61.946 C 80.775,72.187 80.614,37.453 99.977,27.812 Z" filter="url(#c)" style="mix-blend-mode:normal"/>
  <g id="g103" transform="translate(-85.94 4.7621)">
    <g id="g98" stroke-linecap="square" stroke-linejoin="round">
      <g id="g82" stroke-width="1.4718" transform="translate(85.938)">
        <path id="path79" fill="#ccc" d="m 100.03,7.5193 c -0.0154,0.00234 -0.03036,0.00602 -0.04578,0.00839 -0.0013,-2e-4 -0.0025,-5.7e-4 -0.0038,-7.6e-4 -0.28059,0.0429 -0.55639,0.09575 -0.83389,0.14496 -0.18141,0.03222 -0.36544,0.05898 -0.5455,0.09384 -0.34944,0.06759 -0.69401,0.14527 -1.0384,0.22278 -0.11566,0.02601 -0.23359,0.04765 -0.34866,0.07476 -0.23819,0.05618 -0.47157,0.12071 -0.70725,0.18158 -0.22213,0.05727 -0.44617,0.11107 -0.66605,0.17243 -0.03821,0.01069 -0.07553,0.02275 -0.11367,0.03357 -18.781,5.3109 -29.263,25.482 -25.445,47.231 1.7072,9.8542 6.3473,20.032 14.489,29.296 H 45.64 c 7.2734,6.0741 11.493,11.849 13.214,17.351 10.438,-5.752 17.401,-8.1177 34.296,-6.752 0,11.932 3.2869,52.852 -11.771,65.527 7.3844,4.6528 15.547,15.319 18.6,21.87 3.0537,-6.5516 11.199,-17.218 18.583,-21.87 -15.058,-12.676 -10.705,-59.506 -10.705,-65.471 16.895,-1.3658 22.814,0.96484 33.252,6.7169 1.7212,-5.5022 6.0035,-11.304 13.271,-17.372 h -39.147 c 0.54657,-0.62194 1.0724,-1.2491 1.5877,-1.8791 0.004,-0.0045 0.007,-0.0092 0.0107,-0.01373 0.45238,-0.55337 0.89215,-1.1095 1.3206,-1.6685 0.11341,-0.14736 0.2262,-0.29479 0.33798,-0.4425 0.27958,-0.37109 0.55246,-0.74361 0.82169,-1.1169 13.382,-18.462 14.206,-39.451 6.2454,-54.137 -0.40809,-0.78389 -0.85943,-1.5594 -1.3512,-2.3247 -1.3404,-2.117 -2.8846,-4.0614 -4.6379,-5.8315 -5.003,-5.019 -11.69,-8.8958 -19.538,-10.028 -2e-5,-0.00525 -7.7e-4,-0.01 -7.7e-4,-0.01526 z m -0.05188,15.532 c 6.3666,2.7237 11.718,10.68 13.73,20.624 2.5855,12.786 -0.34879,28.858 -13.735,41.32 -23.8,-22.153 -14.546,-55.718 0.0053,-61.944 z m -0.0053,63.174 0.0038,2.4338 v 0.0038 c -0.0015,-10e-4 -0.003,-0.002 -0.0046,-0.0031 z"/>
        <path id="path80" fill="url(#f)" d="m 99.983,7.5267 c -30.328,4.6375 -42.662,46.274 -15.166,77.502 l 12.457,5.0408 c -6.4065,-7.0469 -23.155,-26.601 -20.613,-45.314 1.6725,-12.31 16.664,-27.275 23.368,-30.963 -0.008,-2.105 1.1833,-5.2296 -0.04628,-6.2655 z"/>
        <path id="path81" fill="url(#d)" d="m 99.979,18.013 c 30.328,4.6375 34.134,47.683 0,70.674 l -9.75e-4,-3.6911 C 123.77803,62.8419 114.53303,29.2739 99.979,23.0499 Z"/>
        <path id="path82" fill="url(#e)" d="m 99.979,18.013 c 30.328,4.6375 34.134,47.683 0,70.674 l -0.005,-3.6913 c 23.8,-22.154 14.562,-55.722 0.0078,-61.946 z"/>
      </g>
      <path id="path83" fill="#8e8e8e" stroke-width="1.51" d="m 185.92,7.5267 c 29.352,3.9531 42.74,46.224 15.244,77.452 l -12.47,5.079 c 6.406,-7.047 23.182,-26.588 20.64,-45.302 -1.672,-12.31 -16.66,-27.277 -23.364,-30.965 L 185.9199,7.527 Z"/>
      <path id="path84" fill="url(#g)" stroke-width="1.4718" d="m 199.47,12.653 c 8.1024,5.312 13.475,13.034 15.694,23.236 l -10.186,-1.4386 c -0.72807,-3.4065 5.8071,-8.656 -4.1365,-6.7467 -1.4649,-2.0371 -2.5166,-3.271 -4.5839,-5.4776 -0.76219,-4.9991 -9.6941,-17.813 3.2125,-9.5732 z" style="mix-blend-mode:normal"/>
      <path id="path85" fill="url(#h)" stroke-width="1.4718" d="m 211.06,24.907 c 9.2136,16.072 7.6522,40.152 -9.887,60.071 l -12.476,5.0779 c 6.4065,-7.0469 23.183,-26.587 20.641,-45.301 -0.40546,-2.9844 -1.5936,-6.1239 -3.2554,-9.2223 -7.5849,-8.6356 1.5419,-8.0937 4.9776,-10.624 z"/>
      <path id="path86" fill="url(#i)" stroke-width="1.51" d="m 180.07,25.495 c 9.453,16.49 7.472,39.958 -10.523,60.395 l -12.795,5.21 c 6.573,-7.23 23.785,-27.278 21.177,-46.478 -0.416,-3.062 -1.635,-6.283 -3.34,-9.462 -7.782,-8.86 1.956,-7.067 5.48,-9.665 z" filter="url(#j)" style="mix-blend-mode:normal" transform="translate(35.498 .85338) scale(.97467)"/>
      <path id="path87" fill="url(#k)" stroke-width="1.4718" d="m 208.12,20.571 c 2.2125,2.7583 3.8928,5.7018 4.9221,8.7136 l -8.1219,4.0449 c -1.5059,-2.5117 -3.2876,-4.9689 -5.1755,-7.2623 z"/>
      <path id="path88" fill="url(#l)" stroke-width="5.5522" d="m 185.92,91.358 -39.332,1.0827 0.0833,3.1592 c -2.1165,0.37938 -2.7063,2.6672 -1.8766,6.7293 10.438,-5.7521 17.401,-8.1173 34.296,-6.7515 l 6.8292,3.4646 z"/>
      <path id="path89" fill="url(#m)" stroke-width=".97467" d="m 170.71,84.978 h -39.133 l 12.356,7.6462 39.279,-2.5548 -3.0309,-1.4053 z"/>
      <path id="path90" fill="url(#n)" stroke-width=".97467" d="m 201.17,84.978 39.156,-2.6e-4 -12.369,7.6459 -39.293,-2.5166 2.9844,-1.4435 z"/>
      <g id="g97" stroke-width="5.5522" transform="translate(85.938)">
        <path id="path91" fill="url(#o)" d="m 138.53,96.023 6.4309,-7.3587 9.4221,-3.6858 c -7.2678,6.0686 -11.55,11.87 -13.271,17.373 z"/>
        <path id="path92" fill="url(#p)" d="m 99.982,91.358 h 38.327 l 0.74057,5.1166 2.0633,5.8764 c -10.438,-5.7521 -16.357,-8.0833 -33.253,-6.7174 l -7.8781,3.4083 z"/>
        <path id="path93" fill="url(#q)" d="m 103.79,91.659 -1.0837,-1.0097 v 70.455 c 5.2863,0.001 8.5939,1.7356 15.863,-1e-5 -15.058,-12.676 -10.705,-59.507 -10.705,-65.471 z"/>
        <path id="path94" fill="url(#r)" d="m 99.982,161.1 c -0.0252,7.291 -9.1442,2.8784 0,21.87 3.0537,-6.5516 11.199,-17.217 18.583,-21.87 z"/>
        <path id="path95" fill="url(#s)" d="m 99.982,161.1 v 21.87 c -3.0537,-6.5516 -11.215,-17.217 -18.6,-21.87 3.5869,-3.278 12.4,0 18.6,0 z"/>
        <path id="path96" fill="url(#t)" d="m 93.153,95.577 4.1253,-5.5078 v 71.035 h -15.896 c 15.058,-12.676 11.771,-53.595 11.771,-65.527 z"/>
        <path id="path97" fill="url(#u)" d="M 60.744,95.577 55.0122,88.676 45.642,84.9778 c 7.2734,6.0741 11.493,11.848 13.214,17.351 z"/>
      </g>
    </g>
    <path id="path98" fill="#ccc" d="m 185.92,18.012 c -30.328,4.638 -34.143,47.683 -0.009,70.675 l 0.001,-3.691 C 162.112,62.841 171.366,29.274 185.92,23.05 Z"/>
    <path id="path99" d="M 34.884,15.081 C 3.768,19.839 -0.144,64.003 34.8761,87.592 l 0.002,-3.787 C 10.4581,61.075 19.9531,26.636 34.884,20.25 Z" mask="url(#mask88)" opacity=".501" style="mix-blend-mode:normal" transform="translate(151.92 3.3134) scale(.97467)"/>
    <g id="g102" stroke-linecap="square" stroke-linejoin="round">
      <path id="path100" fill-opacity=".425" d="M 65.85,2.97 C 34.551,7.73 22.05,50.404 50.261,82.444 l 12.795,5.21 C 56.483,80.424 39.271,60.376 41.879,41.176 43.595,28.546 58.972,13.19 65.85,9.406 c 3.167,-1.743 0,-3.183 0,-6.435 z" mask="url(#w)" transform="translate(121.79 4.6244) scale(.97467)"/>
      <path id="path101" fill="url(#x)" stroke-width=".97467" d="m 185.92,7.5267 c 29.811,4.1046 42.707,46.274 15.211,77.502 l -12.443,5.0273 c 6.4065,-7.0469 23.183,-26.587 20.641,-45.301 -1.6725,-12.31 -16.66,-27.277 -23.364,-30.965 z"/>
      <path id="path102" fill="url(#y)" stroke-width=".97467" d="m 185.95,10.684 c -29.279,4.5644 -39.272,48.517 -5.7595,77.979 l -39.233,0.01405 5.481,7.7979 c 11.706,-4.0205 23.639,-4.6745 35.675,-4.8139 0,40.171 -0.64231,54.205 -9.0839,69.444 4.7369,3.9308 8.8632,7.7223 12.897,14.487 4.0322,-6.7642 8.0296,-10.557 12.767,-14.487 -8.4406,-15.237 -8.9629,-29.27 -8.9629,-69.445 12.037,0.14035 23.213,-0.34211 35.264,4.8149 l 5.9121,-7.8104 -39.254,-0.0016 c 33.512,-29.462 23.577,-73.415 -5.7022,-77.979 z m -0.0265,7.3297 c 29.84,12.047 24.866,54.38 0,70.649 -24.867,-16.271 -29.84,-58.606 0,-70.649 z"/>
    </g>
  </g>
</svg>
