<svg xmlns="http://www.w3.org/2000/svg" xmlns:xlink="http://www.w3.org/1999/xlink" viewBox="0 0 127.25986 90.04847">
  <defs>
    <radialGradient id="y" cx="103.91" cy="40.386002" r="15.635" gradientTransform="matrix(.46689 .12423 -.67875 2.5508 78.881 -108.4)" gradientUnits="userSpaceOnUse">
      <stop offset="0" stop-color="#fff"/>
      <stop offset="1" stop-color="#fff" stop-opacity="0"/>
    </radialGradient>
    <radialGradient id="g" cx="173.11" cy="50.610001" r="12.412" gradientTransform="matrix(.78555 .44895 -.55264 .96698 -.90525 -43.544)" gradientUnits="userSpaceOnUse">
      <stop offset="0" stop-color="#8e8e8e"/>
      <stop offset="1" stop-color="#fff" stop-opacity="0"/>
    </radialGradient>
    <radialGradient id="h" cx="161.67999" cy="28.903999" r="9.9280005" gradientTransform="matrix(.78627 -.57599 1.0601 1.4472 -38.055 77.395)" gradientUnits="userSpaceOnUse">
      <stop offset="0" stop-color="#838383"/>
      <stop offset=".844" stop-color="#fff"/>
      <stop offset="1" stop-color="#fff" stop-opacity="0"/>
    </radialGradient>
    <radialGradient id="i" cx="185.36" cy="56.123001" r="14.238" gradientTransform="matrix(1.6146 .72692 -1.7005 3.7771 -73.741 -297.26)" gradientUnits="userSpaceOnUse">
      <stop offset="0" stop-color="#fff"/>
      <stop offset=".417" stop-color="#7f7f7f"/>
      <stop offset="1"/>
    </radialGradient>
    <radialGradient id="j" cx="182.55" cy="56.493999" r="14.238" gradientTransform="matrix(.2594 -.26586 .07053 .06881 128.19 93.441)" gradientUnits="userSpaceOnUse">
      <stop offset=".198" stop-color="#fff"/>
      <stop offset="1" stop-color="#d9d9d9" stop-opacity="0"/>
    </radialGradient>
    <radialGradient id="l" cx="175.44" cy="27.122999" r="6.822" gradientTransform="matrix(1.2869 -.53482 .16387 .39429 -109.76 110.08)" gradientUnits="userSpaceOnUse">
      <stop offset=".454"/>
      <stop offset="1" stop-opacity="0"/>
    </radialGradient>
    <radialGradient id="m" cx="112.24" cy="141.59" r="3.704" gradientTransform="matrix(-2.1721 -10.251 -14.871 3.1512 2408.3 806.65)" gradientUnits="userSpaceOnUse">
      <stop offset="0" stop-color="#fff"/>
      <stop offset=".156" stop-color="#a6a6a6"/>
      <stop offset=".406" stop-color="#6a6a6a"/>
      <stop offset=".534" stop-color="#a6a6a6"/>
    </radialGradient>
    <radialGradient id="p" cx="111.43" cy="149.02" r="1.375" gradientTransform="matrix(6.6138 8.9679 -11.124 8.2039 1059.9 -2125.4)" gradientUnits="userSpaceOnUse">
      <stop offset=".386" stop-color="#b7b7b7" stop-opacity=".992"/>
      <stop offset=".702" stop-color="#5a5a5a"/>
    </radialGradient>
    <radialGradient id="q" cx="111.7" cy="142.45" r="3.704" gradientTransform="matrix(-2.0249 10.281 -9.2544 -1.8228 1652.4 -793.38)" gradientUnits="userSpaceOnUse">
      <stop offset=".094" stop-color="#767676"/>
      <stop offset=".746" stop-color="#d8d8d8"/>
      <stop offset=".84" stop-color="#6a6a6a"/>
      <stop offset=".951" stop-color="#969696" stop-opacity=".992"/>
    </radialGradient>
    <radialGradient id="s" cx="104.71" cy="163.84" r="1.673" gradientTransform="matrix(5.4387 1.1168 -2.1739 10.587 -113.29 -1668.6)" gradientUnits="userSpaceOnUse">
      <stop offset="0" stop-color="#b4b4b4"/>
      <stop offset=".917" stop-color="#333"/>
    </radialGradient>
    <radialGradient id="v" cx="111.37" cy="148.97" r="1.375" gradientTransform="matrix(-6.6138 8.9679 11.124 8.2039 -859.91 -2125.4)" gradientUnits="userSpaceOnUse">
      <stop offset=".386" stop-color="#fff" stop-opacity=".992"/>
      <stop offset=".702" stop-color="#c3c3c3"/>
    </radialGradient>
    <linearGradient id="z" x1="112.77" x2="96.570999" y1="155.91" y2="133.31" gradientTransform="translate(-481.17 -729.48) scale(5.5522)" gradientUnits="userSpaceOnUse">
      <stop offset="0" stop-color="#d2d2d2"/>
      <stop offset=".5" stop-color="#fff"/>
      <stop offset=".798" stop-color="silver"/>
    </linearGradient>
    <linearGradient id="e" x1="72.735001" x2="72.735001" y1="13.672" y2="89.742996" gradientTransform="translate(-1.3408 -5.8066) scale(.97467)" gradientUnits="userSpaceOnUse">
      <stop offset=".175" stop-color="#fff" stop-opacity=".996"/>
      <stop offset=".482" stop-color="#d5d5d5" stop-opacity=".996"/>
      <stop offset=".517" stop-color="#afafaf" stop-opacity=".996"/>
      <stop offset=".577" stop-color="#fff" stop-opacity=".996"/>
      <stop offset=".754" stop-color="#fff" stop-opacity=".996"/>
      <stop offset="1" stop-color="#7b7b7b"/>
    </linearGradient>
    <linearGradient id="f" x1="142.88" x2="167.7" y1="6.085" y2="42.341" gradientTransform="translate(-39.28 12.081) scale(.97467)" gradientUnits="userSpaceOnUse">
      <stop offset="0" stop-color="#adadad"/>
      <stop offset=".1" stop-color="#909090"/>
      <stop offset=".264" stop-color="#fff"/>
      <stop offset=".391" stop-color="#8f8f8f"/>
      <stop offset=".484" stop-color="#fff"/>
      <stop offset=".729" stop-color="#909090"/>
      <stop offset="1" stop-color="#fff"/>
    </linearGradient>
    <linearGradient id="n" x1="105.16" x2="112.77" y1="146.7" y2="147.36" gradientTransform="matrix(-5.5522 0 0 5.5522 681.13 -729.48)" gradientUnits="userSpaceOnUse">
      <stop offset=".105" stop-color="#7a7a7a"/>
      <stop offset=".184" stop-color="#b9b9b9"/>
      <stop offset=".834" stop-color="#b7b7b7"/>
      <stop offset="1" stop-color="#fff"/>
    </linearGradient>
    <linearGradient id="o" x1="105.16" x2="112.77" y1="146.7" y2="147.36" gradientTransform="translate(-481.17 -729.48) scale(5.5522)" gradientUnits="userSpaceOnUse">
      <stop offset=".105" stop-color="#7a7a7a"/>
      <stop offset=".184" stop-color="#b9b9b9"/>
      <stop offset=".834" stop-color="#b7b7b7"/>
      <stop offset="1" stop-color="#9e9e9e"/>
    </linearGradient>
    <linearGradient id="r" x1="102.26" x2="102.85" y1="159.42" y2="151.64999" gradientTransform="matrix(-5.5522 0 0 5.5522 681.13 -729.48)" gradientUnits="userSpaceOnUse">
      <stop offset="0" stop-color="#c9c9c9"/>
      <stop offset=".2" stop-color="#8d8d8d" stop-opacity=".996"/>
      <stop offset=".344" stop-color="#bbb"/>
      <stop offset="1" stop-color="#c4c4c4" stop-opacity=".996"/>
    </linearGradient>
    <linearGradient id="t" x1="101.32" x2="104.67" y1="160.39999" y2="164.34" gradientTransform="translate(-481.17 -729.48) scale(5.5522)" gradientUnits="userSpaceOnUse">
      <stop offset="0" stop-color="#b4b4b4"/>
      <stop offset=".288" stop-color="#f4f4f4" stop-opacity=".992"/>
      <stop offset=".541" stop-color="#b4b4b4" stop-opacity=".992"/>
      <stop offset=".707" stop-color="#cecece" stop-opacity=".996"/>
      <stop offset="1" stop-color="#e9e9e9"/>
    </linearGradient>
    <linearGradient id="u" x1="102.35" x2="103.44" y1="160.36" y2="148.60001" gradientTransform="translate(-481.17 -729.48) scale(5.5522)" gradientUnits="userSpaceOnUse">
      <stop offset="0" stop-color="#c9c9c9"/>
      <stop offset=".154" stop-color="#fff"/>
      <stop offset="1" stop-color="#aaa"/>
    </linearGradient>
    <filter id="a" width="1.5471058" height="1.4192891" x="-.32548375" y="-.22008279" color-interpolation-filters="sRGB">
      <feGaussianBlur stdDeviation="3.034"/>
    </filter>
    <filter id="b" width="1.3570548" height="1.1968402" x="-.17936883" y="-.1284549" color-interpolation-filters="sRGB">
      <feGaussianBlur stdDeviation="1.317"/>
    </filter>
    <filter id="k" width="1.0290753" height="1.0128039" x="-.01453766" y="-.00640195" color-interpolation-filters="sRGB">
      <feGaussianBlur stdDeviation=".175"/>
    </filter>
    <filter id="d" width="1.1960725" height="1.1214515" x="-.09803626" y="-.06072573" color-interpolation-filters="sRGB">
      <feGaussianBlur stdDeviation="4.439"/>
    </filter>
    <mask id="x" maskUnits="userSpaceOnUse">
      <path fill="#fff" fill-opacity=".996" stroke="#fcfcfc" stroke-linecap="square" stroke-width="4" d="M 65.85,9.404 C 62.706,6.596 59.21,4.199 57.25,0 L 46.825,8.016 c 4.567,-2.542 16.534,2.996 21.099,4.537 1.924,0.65 -3.995,-4.014 -2.074,-3.149 z m -12.157,29.202 -24.912,8.59 -2.516,-0.903 c 7.303,-2.182 19.162,-5.119 27.428,-7.687 z" filter="url(#a)" paint-order="markers fill stroke" style="mix-blend-mode:normal"/>
    </mask>
    <mask id="w" maskUnits="userSpaceOnUse">
      <path fill="none" stroke="#fefefe" stroke-linecap="square" stroke-width="4" d="m 31.614,72.396 c -12.141,0.637 -13.048,3.3 -16.585,5.488 l 11.191,11.526 7.773,2.233 4.58,-13.277 z M 27.239,27.795 c -2.077,-0.83 -5.13,-5.584 -10.649,-9 l 7.246,0.193 2.385,2.427 1.786,-4.494 3.762,-0.04 3.206,-7.23 1.727,13.614 -6.873,-3.793 z m -0.652,8.583 C 23.835,34.407 15.03,27.795 10.055,27.188 l -0.077,1.72 c 1.975,5.032 11.682,1.642 16.608,7.47 z M 23.289,52.073 C 17.807,52.112 10.898,50.613 7.649,48.65 l 0.615,6.178 c 6.126,0.267 10.503,-0.754 15.025,-2.755 z" filter="url(#b)" paint-order="markers fill stroke" transform="translate(.000506 .0000484) scale(1.00001)"/>
    </mask>
  </defs>
  <path fill="#000428" d="m 32.302335,121.58251 q -0.04961,-0.19844 -0.04961,-0.29765 0,-0.42168 0.545704,-0.99219 1.389062,-1.46348 1.562695,-2.0836 0.620117,-2.35644 0.620117,-7.4414 V 90.998319 q 0,-2.480469 -0.347266,-3.199805 -0.595312,-0.620117 -0.942578,-1.041796 -0.347265,-0.42168 -0.347265,-0.79375 0,-0.148829 0.04961,-0.347266 0.07441,-0.198438 0.917773,-0.198438 0.595313,0 2.232422,0.248047 1.63711,0.248047 2.232422,0.248047 l 4.440039,0.04961 q 0.223242,0 1.488281,-0.07441 1.289844,-0.09922 3.59668,-0.198438 2.306836,-0.09922 3.274219,-0.09922 1.513086,0 2.406054,0.09922 0.892969,0.07441 1.116211,0.272852 0.595313,0.545703 1.488282,3.224609 0.992187,2.951758 0.992187,4.787305 0,0.719335 -0.198437,1.190625 -0.173633,0.471289 -0.545704,0.620117 -0.620117,0.248047 -1.860351,-1.091407 -0.570508,-0.620117 -2.356445,-2.877343 -1.488282,-1.885156 -2.207618,-2.38125 -2.778125,-1.95957 -6.077148,-1.95957 l -0.818555,0.0248 -0.496093,0.04961 v 14.337122 l 1.016992,0.0992 0.595312,0.0248 q 3.125391,0 4.936133,-1.43869 0.520899,-0.39687 1.835547,-3.299018 0.545703,-1.190625 0.892969,-1.190625 h 0.570507 V 109.87467 H 52.17089 q -0.37207,0 -1.116211,-1.86035 -0.843359,-2.1084 -1.488281,-2.6293 -1.810742,-1.43867 -4.936133,-1.43867 l -0.595312,0.0248 q -0.297656,0 -0.446485,0.0248 -0.124023,0 -0.570507,0.0992 v 8.4832 q 0,4.04316 0.967382,5.72988 0.992188,1.68672 3.299024,1.68672 2.604492,0 5.531445,-2.6293 0.868164,-0.76894 1.785938,-1.83554 1.11621,-1.26504 1.885156,-2.53008 0.669726,-1.09141 1.339453,-2.20762 0.719336,-1.04179 1.190625,-0.86816 0.347265,0.14883 0.520898,0.66972 0.173633,0.5209 0.173633,1.31465 0,2.38125 -1.116211,6.17637 -1.116211,3.77031 -1.711523,4.09277 -0.198438,0.12403 -1.339453,0.17364 -1.116211,0.0496 -2.778125,0.0496 -2.80293,0 -5.159375,-0.0744 -2.331641,-0.0496 -4.34082,-0.14883 l -4.365625,0.0496 q -0.620118,0 -1.289844,0 -0.644922,0 -1.364258,0.0248 -2.182812,0 -3.026172,-0.17363 -0.818554,-0.17364 -0.917773,-0.4961 z m 35.696406,0.0496 q 0,0.39688 -0.272852,0.5457 -0.272852,0.17364 -0.744141,0.17364 -0.347265,0 -0.942578,-0.0744 -0.595312,-0.0496 -0.644922,-0.0496 l -2.902148,-0.0496 q -0.545703,0 -1.537891,0.0248 -0.967382,0.0248 -1.389062,0.0248 -0.297656,0 -0.868164,0.0496 -0.570508,0.0744 -0.669727,0.0744 -0.471289,0 -0.719336,-0.14883 -0.272851,-0.14883 -0.347265,-0.57051 -0.02481,-0.17363 1.240234,-1.01699 0.892969,-0.59531 1.513086,-1.38906 0.917773,-1.19063 2.505273,-3.49746 1.736329,-2.55489 3.001368,-4.63848 1.289843,-2.0836 2.554882,-4.11758 0.669727,-1.19062 0.669727,-1.73633 0,-0.42168 -1.116211,-3.02617 -1.091406,-2.604504 -2.058789,-4.737708 -1.116211,-2.455664 -1.141016,-2.455664 -0.248047,-0.74414 -1.265039,-2.75332 -0.79375,-1.5875 -1.413867,-2.455664 -0.42168,-0.595312 -2.00918,-1.909961 -1.215429,-1.016992 -1.215429,-1.711523 0,-0.148828 0.09922,-0.446485 0.223242,-0.595312 1.066601,-0.595312 0.42168,0 2.356445,0.520898 0.917774,0.248047 1.413868,0.248047 l 5.060156,0.02481 q 0.173632,0 2.083593,-0.42168 1.016993,-0.223242 1.438672,-0.223242 0.818555,0 1.016992,0.446484 0.07441,0.198438 0.07441,0.372071 0,0.471289 -0.768945,0.942578 -0.942578,0.570508 -1.016992,0.669726 -0.520898,0.644922 -0.520898,1.612305 0,0.570508 0.272851,1.463477 0.173633,0.669726 0.297656,1.16582 0.124024,0.471289 0.347266,1.091406 0.620117,1.761133 0.917773,2.530078 1.016993,2.579688 1.661914,2.579688 0.520899,0 1.26504,-1.711524 0.545703,-1.240234 1.190625,-3.274218 0.148828,-0.520899 0.272851,-1.041797 0.148828,-0.520899 0.198438,-0.84336 0.07441,-0.347265 0.124023,-0.719336 0.04961,-0.37207 0.04961,-0.818554 v -0.694532 q 0,-0.471289 -0.09922,-0.818554 -0.07441,-0.347266 -0.347266,-0.669727 -0.07441,-0.07441 -0.942578,-0.644922 -0.620117,-0.396875 -0.620117,-0.818554 0,-0.148828 0.07441,-0.347266 0.09922,-0.198437 0.396875,-0.297656 0.297656,-0.124024 0.768945,-0.124024 0.768945,0 2.282031,0.322461 1.537891,0.297657 1.785938,0.297657 l 2.033984,-0.02481 q 0.124024,0 1.537891,-0.297656 0.719336,-0.148828 1.066601,-0.148828 0.520899,0 0.694531,0.248046 0.09922,0.124024 0.09922,0.297657 0,0.446484 -1.909961,1.885156 -1.116211,0.843359 -1.711523,1.5875 -0.992188,1.265039 -2.158008,3.100586 -1.16582,1.810742 -2.232422,3.869531 -0.818554,1.364258 -1.215429,2.058789 -1.21543,2.133206 -1.21543,2.579696 0,0.57051 0.843359,2.6045 0.644922,1.56269 2.033985,4.48964 0.595312,1.28985 2.356445,4.86172 0.644922,1.33946 1.289844,2.67891 1.215429,2.50527 1.934765,3.52227 0.372071,0.5457 1.413867,1.14101 0.79375,0.44649 0.79375,0.94258 0,0.19844 -0.04961,0.32246 -0.124023,0.42168 -0.396875,0.57051 -0.248047,0.17363 -0.694531,0.17363 -0.248047,0 -0.942578,-0.0992 -0.694532,-0.0992 -0.917774,-0.0992 l -3.96875,-0.0496 q -0.79375,0 -1.810742,0 -1.016992,0.0248 -2.257226,0.0496 -0.347266,0 -0.992188,0.0744 -1.513086,0.17363 -1.909961,0.17363 -0.446484,0 -0.694531,-0.0992 -0.248047,-0.0744 -0.248047,-0.29765 0,-0.14883 0.04961,-0.22325 0.148828,-0.34726 0.620117,-0.64492 0.620117,-0.32246 1.265039,-0.66973 0.248047,-0.22324 0.37207,-0.62011 0.124023,-0.42168 0.124023,-0.99219 0,-0.76895 -0.297656,-1.86035 -0.09922,-0.37207 -0.396875,-1.14102 -0.37207,-0.94258 -0.520898,-1.36426 -0.719336,-2.18281 -1.240235,-3.67109 -1.041796,-2.90215 -1.513085,-2.90215 -0.42168,0 -1.488282,2.6541 -0.644922,1.5875 -1.240234,3.32383 -0.446484,1.16582 -0.868164,2.30684 -0.09922,0.44648 -0.173633,0.94258 -0.07441,0.49609 -0.07441,0.86816 0,1.26504 0.545703,2.18281 0.148828,0.22325 0.892969,0.54571 0.744141,0.32246 0.744141,0.81855 z M 115.57414,86.260624 q 0,0.669726 -1.78593,2.282031 -1.0418,0.917773 -1.43868,1.810742 -0.5705,1.265039 -0.84335,2.232422 -0.24805,0.967383 -0.24805,2.257227 0,1.488281 -0.0496,4.067968 -0.0496,2.579696 -0.0744,4.464856 0,6.35 0.64493,7.51582 0.66972,1.16582 0.69453,1.21543 v 1.01699 q 0,2.00918 -1.28985,4.2416 -1.48828,2.6045 -4.06796,4.16719 -3.07579,1.88516 -7.118967,1.88516 -6.225975,0 -9.376171,-4.53926 -2.728515,-3.91914 -2.728515,-10.36836 0,-1.73633 0.07441,-4.56406 0.09922,-2.82774 0.198437,-5.85392 0,-1.141016 -0.124023,-3.547071 -0.09922,-2.406054 -0.148828,-2.703711 -0.719336,-3.472656 -2.331641,-4.365624 -0.644922,-0.347266 -0.644922,-1.240235 0,-0.595312 0.223243,-0.768945 0.223242,-0.198438 0.520898,-0.198438 1.612305,0.496094 2.530078,0.744141 2.877344,0.768945 4.241602,0.768945 1.215429,0 2.951757,-0.818554 1.736329,-0.818555 2.356446,-0.818555 0.595312,0 1.041797,0.595312 0.37207,0.496094 0.37207,0.892969 0,0.471289 -0.694531,1.066602 -1.810743,1.53789 -2.282032,2.926953 -0.09922,0.545703 -0.198437,1.835547 -0.07441,1.289843 -0.07441,2.505273 0,1.612305 -0.07441,4.142383 -0.07441,2.530088 -0.07441,4.142398 0.124023,0.39687 0.124023,3.15019 0,2.75332 0.124024,4.83692 0.148828,2.08359 0.719336,3.24941 1.190625,2.35645 4.191996,2.35645 3.24943,0 4.76251,-2.40606 1.24024,-1.95957 1.24024,-5.33301 0,-6.9205 0.0248,-8.90489 0.0496,-2.009182 0.0992,-3.299025 0,-1.016993 -0.27285,-2.703711 -0.24805,-1.711524 -0.66973,-2.951758 -0.79375,-2.455664 -2.85254,-3.745508 -0.81855,-0.520898 -0.81855,-1.091406 0,-0.37207 0.32246,-0.818555 0.34726,-0.446484 0.69453,-0.446484 0.94258,0.570508 2.72852,1.041797 1.78593,0.446484 3.7207,0.446484 1.43867,0 2.60449,-0.446484 0.94258,-0.520899 1.88516,-1.041797 0.14883,0 0.66973,0.396875 0.52089,0.37207 0.52089,0.719336 z m -0.31468,35.917196 q -0.22325,0 -0.32246,-0.39687 -0.0744,-0.39688 -0.0744,-0.5209 0,-0.66973 0.96738,-1.46348 1.06661,-0.89296 1.26504,-1.5875 0.62012,-2.35644 0.62012,-7.4414 V 96.331327 q 0,-0.347266 0.0248,-1.364258 0.0248,-1.016992 0.0248,-1.562695 0,-0.868164 -0.0496,-1.463477 -0.0496,-0.595312 -0.24805,-0.942578 -0.17363,-0.37207 -0.69453,-0.744141 -0.5209,-0.396875 -0.66972,-0.79375 -0.29766,-0.79375 1.53789,-1.488281 0.32246,-0.124023 3.10058,-0.892968 0.14883,-0.04961 2.43086,-1.190625 0.89297,-0.446485 1.36426,-0.446485 0.42168,0 0.71934,0.272852 0.29765,0.248047 0.42168,0.967383 0.14882,0.719335 0.14882,1.637109 0,0.719336 -0.0248,1.389062 -0.0248,0.669727 -0.0496,1.289844 v 21.580091 q 0,4.04316 0.91777,5.72988 0.47129,0.89297 1.46348,1.86035 0.99219,0.96739 1.95957,1.43868 1.33945,0.64492 3.10059,1.24023 1.76113,0.59531 3.00136,0.79375 1.24024,0.22324 2.75332,0.22324 1.09141,0 1.93477,-0.0744 0.86816,-0.0744 2.03398,-0.34727 -1.48828,1.36426 -3.10058,1.95957 -1.61231,0.62012 -3.64629,0.62012 -1.36426,0 -3.52227,-0.5209 -2.1332,-0.49609 -4.36562,-1.24023 -2.23242,-0.74414 -3.91914,-1.11621 -0.42168,-0.0992 -3.27422,-0.59532 -1.41387,-0.24804 -2.55488,-0.32246 -1.11622,-0.0496 -3.27422,-0.0496 z m 20.87074,-0.49609 q -0.14883,-0.27285 -0.14883,-0.5209 0,-0.47129 0.64492,-1.0418 1.5627,-1.36425 1.71153,-1.95957 0.62012,-2.48046 0.62012,-9.40097 v -2.20762 -16.519934 q 0,-1.066601 -0.17364,-1.389062 -0.14883,-0.322461 -0.62011,-0.322461 -1.46348,0 -3.6959,2.158008 -0.37207,0.347265 -1.73633,3.447851 -1.09141,2.455664 -2.45567,2.455664 -0.22324,0 -0.34726,-0.0248 -0.0992,0.124023 -0.29766,0.124023 -0.27285,0 -0.44648,-0.272852 -0.17363,-0.272851 -0.17363,-1.091406 0,-1.934765 0.76894,-5.357812 0.79375,-3.423047 1.26504,-3.795117 0.24805,-0.198438 3.42305,-0.297657 3.1998,-0.124023 7.86308,-0.124023 5.13457,0 8.75606,0.124023 3.62148,0.09922 3.86953,0.297657 0.49609,0.421679 1.26504,3.646289 0.76894,3.199804 0.76894,5.13457 0,1.364258 -0.37207,1.513086 -0.37207,0.124023 -0.47129,0.148828 -0.0744,0.02481 -0.12402,-0.04961 -0.29766,0.04961 -0.44648,0.04961 -1.06661,0 -1.90997,-1.513086 -1.0914,-2.207617 -2.18281,-4.415234 -2.28203,-2.158008 -3.67109,-2.158008 -0.4961,0 -0.66973,0.347265 -0.14883,0.322461 -0.14883,1.364258 v 1.488282 17.239268 q 0,7.06933 0.62012,9.40097 0.14883,0.57051 1.63711,1.90997 0.66973,0.59531 0.66973,1.0666 0,0.27285 -0.12403,0.49609 -0.22324,0.42168 -0.5705,0.57051 -0.34727,0.17363 -0.86817,0.17363 -0.27285,0 -0.89297,-0.0744 -0.62011,-0.0744 -0.91777,-0.0744 l -3.57188,-0.0496 q -0.71933,0 -1.6123,0 -0.89297,0.0248 -1.98437,0.0496 -0.17364,0 -1.14102,0.12403 -0.37207,0.0496 -0.71934,0.0496 -0.52089,0 -0.84336,-0.14883 -0.29765,-0.12403 -0.5457,-0.57051 z" aria-label="EXULT" transform="translate(-29.731071 -35.97409)"/>
  <path fill="#4068a7" d="m 29.780682,119.49984 q -0.04961,-0.19844 -0.04961,-0.29765 0,-0.42168 0.545704,-0.99219 1.389062,-1.46348 1.562695,-2.0836 0.620117,-2.35644 0.620117,-7.4414 V 88.915662 q 0,-2.480469 -0.347266,-3.199805 -0.595312,-0.620117 -0.942578,-1.041796 -0.347265,-0.42168 -0.347265,-0.79375 0,-0.148829 0.04961,-0.347266 0.07441,-0.198438 0.917773,-0.198438 0.595313,0 2.232422,0.248047 1.63711,0.248047 2.232422,0.248047 l 4.440039,0.04961 q 0.223242,0 1.488281,-0.07441 1.289844,-0.09922 3.59668,-0.198438 2.306836,-0.09922 3.274219,-0.09922 1.513086,0 2.406054,0.09922 0.892969,0.07441 1.116211,0.272852 0.595313,0.545703 1.488282,3.224609 0.992187,2.951758 0.992187,4.787305 0,0.719335 -0.198437,1.190625 -0.173633,0.471289 -0.545704,0.620117 -0.620117,0.248047 -1.860351,-1.091407 -0.570508,-0.620117 -2.356445,-2.877343 -1.488282,-1.885156 -2.207618,-2.38125 -2.778125,-1.95957 -6.077148,-1.95957 l -0.818555,0.0248 -0.496093,0.04961 V 99.80492 l 1.016992,0.09922 0.595312,0.02481 q 3.125391,0 4.936133,-1.438672 0.520899,-0.396875 1.835547,-3.299023 0.545703,-1.190625 0.892969,-1.190625 h 0.570507 v 13.79141 h -0.694531 q -0.37207,0 -1.116211,-1.86035 -0.843359,-2.1084 -1.488281,-2.6293 -1.810742,-1.43867 -4.936133,-1.43867 l -0.595312,0.0248 q -0.297656,0 -0.446485,0.0248 -0.124023,0 -0.570507,0.0992 v 8.4832 q 0,4.04316 0.967382,5.72988 0.992188,1.68672 3.299024,1.68672 2.604492,0 5.531445,-2.6293 0.868164,-0.76894 1.785938,-1.83554 1.11621,-1.26504 1.885156,-2.53008 0.669726,-1.09141 1.339453,-2.20762 0.719336,-1.04179 1.190625,-0.86816 0.347265,0.14883 0.520898,0.66972 0.173633,0.5209 0.173633,1.31465 0,2.38125 -1.116211,6.17637 -1.116211,3.77031 -1.711523,4.09277 -0.198438,0.12403 -1.339453,0.17364 -1.116211,0.0496 -2.778125,0.0496 -2.80293,0 -5.159375,-0.0744 -2.331641,-0.0496 -4.34082,-0.14883 l -4.365625,0.0496 q -0.620118,0 -1.289844,0 -0.644922,0 -1.364258,0.0248 -2.182812,0 -3.026172,-0.17363 -0.818554,-0.17364 -0.917773,-0.4961 z m 35.696406,0.0496 q 0,0.39688 -0.272852,0.5457 -0.272852,0.17364 -0.744141,0.17364 -0.347265,0 -0.942578,-0.0744 -0.595312,-0.0496 -0.644922,-0.0496 l -2.902148,-0.0496 q -0.545703,0 -1.537891,0.0248 -0.967382,0.0248 -1.389062,0.0248 -0.297656,0 -0.868164,0.0496 -0.570508,0.0744 -0.669727,0.0744 -0.471289,0 -0.719336,-0.14883 -0.272851,-0.14883 -0.347265,-0.57051 -0.02481,-0.17363 1.240234,-1.01699 0.892969,-0.59531 1.513086,-1.38906 0.917773,-1.19063 2.505273,-3.49746 1.736329,-2.55489 3.001368,-4.63848 1.289843,-2.0836 2.554882,-4.11758 0.669727,-1.19062 0.669727,-1.73633 0,-0.42168 -1.116211,-3.02617 -1.091406,-2.604491 -2.058789,-4.737695 -1.116211,-2.455664 -1.141016,-2.455664 -0.248047,-0.74414 -1.265039,-2.75332 -0.79375,-1.5875 -1.413867,-2.455664 -0.42168,-0.595312 -2.00918,-1.909961 -1.215429,-1.016992 -1.215429,-1.711523 0,-0.148828 0.09922,-0.446485 0.223242,-0.595312 1.066601,-0.595312 0.42168,0 2.356445,0.520898 0.917774,0.248047 1.413868,0.248047 l 5.060156,0.02481 q 0.173632,0 2.083593,-0.42168 1.016993,-0.223242 1.438672,-0.223242 0.818555,0 1.016992,0.446484 0.07441,0.198438 0.07441,0.372071 0,0.471289 -0.768945,0.942578 -0.942578,0.570508 -1.016992,0.669726 -0.520898,0.644922 -0.520898,1.612305 0,0.570508 0.272851,1.463477 0.173633,0.669726 0.297656,1.16582 0.124024,0.471289 0.347266,1.091406 0.620117,1.761133 0.917773,2.530078 1.016993,2.579688 1.661914,2.579688 0.520899,0 1.26504,-1.711524 0.545703,-1.240234 1.190625,-3.274218 0.148828,-0.520899 0.272851,-1.041797 0.148828,-0.520899 0.198438,-0.84336 0.07441,-0.347265 0.124023,-0.719336 0.04961,-0.37207 0.04961,-0.818554 v -0.694532 q 0,-0.471289 -0.09922,-0.818554 -0.07441,-0.347266 -0.347266,-0.669727 -0.07441,-0.07441 -0.942578,-0.644922 -0.620117,-0.396875 -0.620117,-0.818554 0,-0.148828 0.07441,-0.347266 0.09922,-0.198437 0.396875,-0.297656 0.297656,-0.124024 0.768945,-0.124024 0.768945,0 2.282031,0.322461 1.537891,0.297657 1.785938,0.297657 l 2.033984,-0.02481 q 0.124024,0 1.537891,-0.297656 0.719336,-0.148828 1.066601,-0.148828 0.520899,0 0.694531,0.248046 0.09922,0.124024 0.09922,0.297657 0,0.446484 -1.909961,1.885156 -1.116211,0.843359 -1.711523,1.5875 -0.992188,1.265039 -2.158008,3.100586 -1.16582,1.810742 -2.232422,3.869531 -0.818554,1.364258 -1.215429,2.058789 -1.21543,2.133203 -1.21543,2.579687 0,0.570508 0.843359,2.604496 0.644922,1.56269 2.033985,4.48964 0.595312,1.28985 2.356445,4.86172 0.644922,1.33946 1.289844,2.67891 1.215429,2.50527 1.934765,3.52227 0.372071,0.5457 1.413867,1.14101 0.79375,0.44649 0.79375,0.94258 0,0.19844 -0.04961,0.32246 -0.124023,0.42168 -0.396875,0.57051 -0.248047,0.17363 -0.694531,0.17363 -0.248047,0 -0.942578,-0.0992 -0.694532,-0.0992 -0.917774,-0.0992 l -3.96875,-0.0496 q -0.79375,0 -1.810742,0 -1.016992,0.0248 -2.257226,0.0496 -0.347266,0 -0.992188,0.0744 -1.513086,0.17363 -1.909961,0.17363 -0.446484,0 -0.694531,-0.0992 -0.248047,-0.0744 -0.248047,-0.29765 0,-0.14883 0.04961,-0.22325 0.148828,-0.34726 0.620117,-0.64492 0.620117,-0.32246 1.265039,-0.66973 0.248047,-0.22324 0.37207,-0.62011 0.124023,-0.42168 0.124023,-0.99219 0,-0.76895 -0.297656,-1.86035 -0.09922,-0.37207 -0.396875,-1.14102 -0.37207,-0.94258 -0.520898,-1.36426 -0.719336,-2.18281 -1.240235,-3.67109 -1.041796,-2.90215 -1.513085,-2.90215 -0.42168,0 -1.488282,2.6541 -0.644922,1.5875 -1.240234,3.32383 -0.446484,1.16582 -0.868164,2.30684 -0.09922,0.44648 -0.173633,0.94258 -0.07441,0.49609 -0.07441,0.86816 0,1.26504 0.545703,2.18281 0.148828,0.22325 0.892969,0.54571 0.744141,0.32246 0.744141,0.81855 z M 113.05248,84.177967 q 0,0.669726 -1.78593,2.282031 -1.0418,0.917773 -1.43868,1.810742 -0.5705,1.265039 -0.84335,2.232422 -0.24805,0.967383 -0.24805,2.257227 0,1.488281 -0.0496,4.067968 -0.0496,2.579688 -0.0744,4.464843 0,6.35 0.64493,7.51582 0.66972,1.16582 0.69453,1.21543 v 1.01699 q 0,2.00918 -1.28985,4.2416 -1.48828,2.6045 -4.06796,4.16719 -3.07579,1.88516 -7.118959,1.88516 -6.225976,0 -9.376172,-4.53926 -2.728515,-3.91914 -2.728515,-10.36836 0,-1.73633 0.07441,-4.56406 0.09922,-2.827736 0.198437,-5.853907 0,-1.141016 -0.124023,-3.547071 -0.09922,-2.406054 -0.148828,-2.703711 -0.719336,-3.472656 -2.331641,-4.365624 -0.644922,-0.347266 -0.644922,-1.240235 0,-0.595312 0.223243,-0.768945 0.223242,-0.198438 0.520898,-0.198438 1.612305,0.496094 2.530078,0.744141 2.877344,0.768945 4.241602,0.768945 1.215429,0 2.951757,-0.818554 1.736329,-0.818555 2.356446,-0.818555 0.595312,0 1.041797,0.595312 0.37207,0.496094 0.37207,0.892969 0,0.471289 -0.694531,1.066602 -1.810743,1.53789 -2.282032,2.926953 -0.09922,0.545703 -0.198437,1.835547 -0.07441,1.289843 -0.07441,2.505273 0,1.612305 -0.07441,4.142383 -0.07441,2.530078 -0.07441,4.142385 0.124023,0.39687 0.124023,3.15019 0,2.75332 0.124024,4.83692 0.148828,2.08359 0.719336,3.24941 1.190625,2.35645 4.191992,2.35645 3.249427,0 4.762507,-2.40606 1.24024,-1.95957 1.24024,-5.33301 0,-6.9205 0.0248,-8.904879 0.0496,-2.00918 0.0992,-3.299023 0,-1.016993 -0.27285,-2.703711 -0.24805,-1.711524 -0.66973,-2.951758 -0.79375,-2.455664 -2.85254,-3.745508 -0.818557,-0.520898 -0.818557,-1.091406 0,-0.37207 0.322457,-0.818555 0.34727,-0.446484 0.69453,-0.446484 0.94259,0.570508 2.72853,1.041797 1.78593,0.446484 3.7207,0.446484 1.43867,0 2.60449,-0.446484 0.94258,-0.520899 1.88516,-1.041797 0.14883,0 0.66973,0.396875 0.52089,0.37207 0.52089,0.719336 z m -0.31468,35.917183 q -0.22325,0 -0.32246,-0.39687 -0.0744,-0.39688 -0.0744,-0.5209 0,-0.66973 0.96738,-1.46348 1.06661,-0.89296 1.26504,-1.5875 0.62012,-2.35644 0.62012,-7.4414 V 94.24867 q 0,-0.347266 0.0248,-1.364258 0.0248,-1.016992 0.0248,-1.562695 0,-0.868164 -0.0496,-1.463477 -0.0496,-0.595312 -0.24805,-0.942578 -0.17363,-0.37207 -0.69453,-0.744141 -0.5209,-0.396875 -0.66972,-0.79375 -0.29766,-0.79375 1.53789,-1.488281 0.32246,-0.124023 3.10058,-0.892968 0.14883,-0.04961 2.43086,-1.190625 0.89297,-0.446485 1.36426,-0.446485 0.42168,0 0.71934,0.272852 0.29765,0.248047 0.42168,0.967383 0.14882,0.719335 0.14882,1.637109 0,0.719336 -0.0248,1.389062 -0.0248,0.669727 -0.0496,1.289844 v 21.580078 q 0,4.04316 0.91777,5.72988 0.47129,0.89297 1.46348,1.86035 0.99219,0.96739 1.95957,1.43868 1.33945,0.64492 3.10059,1.24023 1.76113,0.59531 3.00136,0.79375 1.24024,0.22324 2.75332,0.22324 1.09141,0 1.93477,-0.0744 0.86816,-0.0744 2.03398,-0.34727 -1.48828,1.36426 -3.10058,1.95957 -1.61231,0.62012 -3.64629,0.62012 -1.36426,0 -3.52227,-0.5209 -2.1332,-0.49609 -4.36562,-1.24023 -2.23242,-0.74414 -3.91914,-1.11621 -0.42168,-0.0992 -3.27422,-0.59532 -1.41387,-0.24804 -2.55488,-0.32246 -1.11622,-0.0496 -3.27422,-0.0496 z m 20.87074,-0.49609 q -0.14883,-0.27285 -0.14883,-0.5209 0,-0.47129 0.64492,-1.0418 1.5627,-1.36425 1.71153,-1.95957 0.62012,-2.48046 0.62012,-9.40097 V 104.4682 87.948279 q 0,-1.066601 -0.17364,-1.389062 -0.14883,-0.322461 -0.62011,-0.322461 -1.46348,0 -3.6959,2.158008 -0.37207,0.347265 -1.73633,3.447851 -1.09141,2.455664 -2.45567,2.455664 -0.22324,0 -0.34726,-0.0248 -0.0992,0.124023 -0.29766,0.124023 -0.27285,0 -0.44648,-0.272852 -0.17363,-0.272851 -0.17363,-1.091406 0,-1.934765 0.76894,-5.357812 0.79375,-3.423047 1.26504,-3.795117 0.24805,-0.198438 3.42305,-0.297657 3.1998,-0.124023 7.86308,-0.124023 5.13457,0 8.75606,0.124023 3.62148,0.09922 3.86953,0.297657 0.49609,0.421679 1.26504,3.646289 0.76894,3.199804 0.76894,5.13457 0,1.364258 -0.37207,1.513086 -0.37207,0.124023 -0.47129,0.148828 -0.0744,0.02481 -0.12402,-0.04961 -0.29766,0.04961 -0.44648,0.04961 -1.06661,0 -1.90997,-1.513086 -1.0914,-2.207617 -2.18281,-4.415234 -2.28203,-2.158008 -3.67109,-2.158008 -0.4961,0 -0.66973,0.347265 -0.14883,0.322461 -0.14883,1.364258 v 1.488282 17.239255 q 0,7.06933 0.62012,9.40097 0.14883,0.57051 1.63711,1.90997 0.66973,0.59531 0.66973,1.0666 0,0.27285 -0.12403,0.49609 -0.22324,0.42168 -0.5705,0.57051 -0.34727,0.17363 -0.86817,0.17363 -0.27285,0 -0.89297,-0.0744 -0.62011,-0.0744 -0.91777,-0.0744 l -3.57188,-0.0496 q -0.71933,0 -1.6123,0 -0.89297,0.0248 -1.98437,0.0496 -0.17364,0 -1.14102,0.12403 -0.37207,0.0496 -0.71934,0.0496 -0.52089,0 -0.84336,-0.14883 -0.29765,-0.12403 -0.5457,-0.57051 z" aria-label="EXULT" transform="translate(-29.731071 -35.97409)"/>
  <g transform="translate(29.949067 -.347412) scale(.31516841)">
    <use xlink:href="#c" transform="translate(.0000031)"/>
    <path id="c" d="M 84.82,89.79 H 45.67 c 5.545,5.26 11.346,10.405 13.175,17.323 11.023,-6.128 21.684,-8.437 34.304,-6.772 0.158,40.337 -0.431,53.28 -11.731,65.527 6.762,2.493 16.592,13.61 18.544,21.851 2.71,-9.719 12.962,-19.983 18.616,-21.864 -11.493,-11.555 -10.748,-25.475 -10.715,-65.689 12.474,-1.13 21.892,-0.175 33.264,6.954 1.756,-5.525 5.938,-11.282 13.213,-17.337 L 115.226,89.741 C 143.871,58.194 130.408,17.199 100.032,12.281 69.607,16.029 57.44,59.011 84.82,89.791 Z M 99.977,27.812 c 16.082,6.595 21.845,42.292 -0.001,61.946 C 80.775,72.187 80.614,37.453 99.977,27.812 Z" filter="url(#d)" style="mix-blend-mode:normal" transform="translate(36.342642 .00000173) scale(.67733333)"/>
    <g stroke-linecap="square" stroke-linejoin="round">
      <g stroke-width="1.4718">
        <path fill="#ccc" d="m 100.03,7.5193 c -0.0154,0.00234 -0.03036,0.00602 -0.04578,0.00839 -0.0013,-2e-4 -0.0025,-5.7e-4 -0.0038,-7.6e-4 -0.28059,0.0429 -0.55639,0.09575 -0.83389,0.14496 -0.18141,0.03222 -0.36544,0.05898 -0.5455,0.09384 -0.34944,0.06759 -0.69401,0.14527 -1.0384,0.22278 -0.11566,0.02601 -0.23359,0.04765 -0.34866,0.07476 -0.23819,0.05618 -0.47157,0.12071 -0.70725,0.18158 -0.22213,0.05727 -0.44617,0.11107 -0.66605,0.17243 -0.03821,0.01069 -0.07553,0.02275 -0.11367,0.03357 -18.781,5.3109 -29.263,25.482 -25.445,47.231 1.7072,9.8542 6.3473,20.032 14.489,29.296 H 45.64 c 7.2734,6.0741 11.493,11.849 13.214,17.351 10.438,-5.752 17.401,-8.1177 34.296,-6.752 0,11.932 3.2869,52.852 -11.771,65.527 7.3844,4.6528 15.547,15.319 18.6,21.87 3.0537,-6.5516 11.199,-17.218 18.583,-21.87 -15.058,-12.676 -10.705,-59.506 -10.705,-65.471 16.895,-1.3658 22.814,0.96484 33.252,6.7169 1.7212,-5.5022 6.0035,-11.304 13.271,-17.372 h -39.147 c 0.54657,-0.62194 1.0724,-1.2491 1.5877,-1.8791 0.004,-0.0045 0.007,-0.0092 0.0107,-0.01373 0.45238,-0.55337 0.89215,-1.1095 1.3206,-1.6685 0.11341,-0.14736 0.2262,-0.29479 0.33798,-0.4425 0.27958,-0.37109 0.55246,-0.74361 0.82169,-1.1169 13.382,-18.462 14.206,-39.451 6.2454,-54.137 -0.40809,-0.78389 -0.85943,-1.5594 -1.3512,-2.3247 -1.3404,-2.117 -2.8846,-4.0614 -4.6379,-5.8315 -5.003,-5.019 -11.69,-8.8958 -19.538,-10.028 -2e-5,-0.00525 -7.7e-4,-0.01 -7.7e-4,-0.01526 z m -0.05188,15.532 c 6.3666,2.7237 11.718,10.68 13.73,20.624 2.5855,12.786 -0.34879,28.858 -13.735,41.32 -23.8,-22.153 -14.546,-55.718 0.0053,-61.944 z m -0.0053,63.174 0.0038,2.4338 v 0.0038 c -0.0015,-10e-4 -0.003,-0.002 -0.0046,-0.0031 z" transform="translate(36.342642 .00000173) scale(.67733333)"/>
        <path fill="url(#e)" d="m 99.983,7.5267 c -30.328,4.6375 -42.662,46.274 -15.166,77.502 l 12.457,5.0408 c -6.4065,-7.0469 -23.155,-26.601 -20.613,-45.314 1.6725,-12.31 16.664,-27.275 23.368,-30.963 -0.008,-2.105 1.1833,-5.2296 -0.04628,-6.2655 z" transform="translate(36.342642 .00000173) scale(.67733333)"/>
        <path fill="url(#f)" d="m 99.979,18.013 c 30.328,4.6375 34.134,47.683 0,70.674 l -9.75e-4,-3.6911 C 123.77803,62.8419 114.53303,29.2739 99.979,23.0499 Z" transform="translate(36.342642 .00000173) scale(.67733333)"/>
        <path fill="url(#g)" d="m 99.979,18.013 c 30.328,4.6375 34.134,47.683 0,70.674 l -0.005,-3.6913 c 23.8,-22.154 14.562,-55.722 0.0078,-61.946 z" transform="translate(36.342642 .00000173) scale(.67733333)"/>
      </g>
      <path fill="#8e8e8e" d="m 99.983,7.5267 c 29.352,3.9531 42.74,46.224 15.244,77.452 l -12.47,5.079 c 6.406,-7.047 23.182,-26.588 20.64,-45.302 -1.672,-12.31 -16.66,-27.277 -23.364,-30.965 L 99.98292,7.527 Z" transform="translate(36.342642 .00000173) scale(.67733333)"/>
      <path fill="url(#h)" d="m 113.53,12.653 c 8.1024,5.312 13.475,13.034 15.694,23.236 l -10.186,-1.4386 c -0.72807,-3.4065 5.8071,-8.656 -4.1365,-6.7467 -1.4649,-2.0371 -2.5166,-3.271 -4.5839,-5.4776 -0.76219,-4.9991 -9.6941,-17.813 3.2125,-9.5732 z" style="mix-blend-mode:normal" transform="translate(36.342642 .00000173) scale(.67733333)"/>
      <path fill="url(#i)" d="m 125.12,24.907 c 9.2136,16.072 7.6522,40.152 -9.887,60.071 l -12.476,5.0779 c 6.4065,-7.0469 23.183,-26.587 20.641,-45.301 -0.40546,-2.9844 -1.5936,-6.1239 -3.2554,-9.2223 -7.5849,-8.6356 1.5419,-8.0937 4.9776,-10.624 z" transform="translate(36.342642 .00000173) scale(.67733333)"/>
      <path fill="url(#j)" d="m 180.07,25.495 c 9.453,16.49 7.472,39.958 -10.523,60.395 l -12.795,5.21 c 6.573,-7.23 23.785,-27.278 21.177,-46.478 -0.416,-3.062 -1.635,-6.283 -3.34,-9.462 -7.782,-8.86 1.956,-7.067 5.48,-9.665 z" filter="url(#k)" style="mix-blend-mode:normal" transform="translate(2.17862617 .57802445) scale(.66017648)"/>
      <path fill="url(#l)" d="m 122.18,20.571 c 2.2125,2.7583 3.8928,5.7018 4.9221,8.7136 l -8.1219,4.0449 c -1.5059,-2.5117 -3.2876,-4.9689 -5.1755,-7.2623 z" transform="translate(36.342642 .00000173) scale(.67733333)"/>
      <path fill="url(#m)" d="m 99.982,91.358 -39.332,1.0827 0.08328,3.1592 c -2.1165,0.37938 -2.7063,2.6672 -1.8766,6.7293 10.438,-5.7521 17.401,-8.1173 34.296,-6.7515 l 6.8292,3.4646 z" transform="translate(36.342642 .00000173) scale(.67733333)"/>
      <path fill="url(#n)" d="M 84.775,84.978 H 45.642 l 12.356,7.6462 39.279,-2.5548 -3.0309,-1.4053 z" transform="translate(36.342642 .00000173) scale(.67733333)"/>
      <path fill="url(#o)" d="m 115.23,84.978 39.156,-2.6e-4 -12.369,7.6459 -39.293,-2.5166 2.9844,-1.4435 z" transform="translate(36.342642 .00000173) scale(.67733333)"/>
      <g stroke-width="5.5522">
        <path fill="url(#p)" d="m 138.53,96.023 6.4309,-7.3587 9.4221,-3.6858 c -7.2678,6.0686 -11.55,11.87 -13.271,17.373 z" transform="translate(36.342642 .00000173) scale(.67733333)"/>
        <path fill="url(#q)" d="m 99.982,91.358 h 38.327 l 0.74057,5.1166 2.0633,5.8764 c -10.438,-5.7521 -16.357,-8.0833 -33.253,-6.7174 l -7.8781,3.4083 z" transform="translate(36.342642 .00000173) scale(.67733333)"/>
        <path fill="url(#r)" d="m 103.79,91.659 -1.0837,-1.0097 v 70.455 c 5.2863,0.001 8.5939,1.7356 15.863,-1e-5 -15.058,-12.676 -10.705,-59.507 -10.705,-65.471 z" transform="translate(36.342642 .00000173) scale(.67733333)"/>
        <path fill="url(#s)" d="m 99.982,161.1 c -0.0252,7.291 -9.1442,2.8784 0,21.87 3.0537,-6.5516 11.199,-17.217 18.583,-21.87 z" transform="translate(36.342642 .00000173) scale(.67733333)"/>
        <path fill="url(#t)" d="m 99.982,161.1 v 21.87 c -3.0537,-6.5516 -11.215,-17.217 -18.6,-21.87 3.5869,-3.278 12.4,0 18.6,0 z" transform="translate(36.342642 .00000173) scale(.67733333)"/>
        <path fill="url(#u)" d="m 93.153,95.577 4.1253,-5.5078 v 71.035 h -15.896 c 15.058,-12.676 11.771,-53.595 11.771,-65.527 z" transform="translate(36.342642 .00000173) scale(.67733333)"/>
        <path fill="url(#v)" d="M 60.744,95.577 55.0122,88.676 45.642,84.9778 c 7.2734,6.0741 11.493,11.848 13.214,17.351 z" transform="translate(36.342642 .00000173) scale(.67733333)"/>
      </g>
    </g>
    <path fill="#ccc" d="m 104.06378,12.20013 c -20.542162,3.141472 -23.126189,32.297285 -0.006,47.870533 l 6.8e-4,-2.500038 c -16.120533,-15.006319 -9.852491,-37.742367 0.005,-41.95809 z"/>
    <path d="M 34.884,15.081 C 3.768,19.839 -0.144,64.003 34.8761,87.592 l 0.002,-3.787 C 10.4581,61.075 19.9531,26.636 34.884,20.25 Z" mask="url(#w)" opacity=".501" style="mix-blend-mode:normal" transform="translate(81.033772 2.244278) scale(.66017648)"/>
    <g stroke-linecap="square" stroke-linejoin="round">
      <path fill-opacity=".425" d="M 65.85,2.97 C 34.551,7.73 22.05,50.404 50.261,82.444 l 12.795,5.21 C 56.483,80.424 39.271,60.376 41.879,41.176 43.595,28.546 58.972,13.19 65.85,9.406 c 3.167,-1.743 0,-3.183 0,-6.435 z" mask="url(#x)" transform="translate(60.62504188 3.13226198) scale(.66017648)"/>
      <path fill="url(#y)" d="m 99.983,7.5267 c 29.811,4.1046 42.707,46.274 15.211,77.502 l -12.443,5.0273 c 6.4065,-7.0469 23.183,-26.587 20.641,-45.301 -1.6725,-12.31 -16.66,-27.277 -23.364,-30.965 z" transform="translate(36.342642 .00000173) scale(.67733333)"/>
      <path fill="url(#z)" d="M 100.01,10.684 C 70.731,15.2484 60.738,59.201 94.2505,88.663 l -39.233,0.01405 5.481,7.7979 c 11.706,-4.0205 23.639,-4.6745 35.675,-4.8139 0,40.171 -0.64231,54.205 -9.0839,69.444 4.7369,3.9308 8.8632,7.7223 12.897,14.487 4.0322,-6.7642 8.0296,-10.557 12.767,-14.487 -8.4406,-15.237 -8.9629,-29.27 -8.9629,-69.445 12.037,0.14035 23.213,-0.34211 35.264,4.8149 l 5.9121,-7.8104 -39.254,-0.0016 c 33.512,-29.462 23.577,-73.415 -5.7022,-77.979 z m -0.02653,7.3297 c 29.84,12.047 24.866,54.38 0,70.649 -24.867,-16.271 -29.84,-58.606 0,-70.649 z" transform="translate(36.342642 .00000173) scale(.67733333)"/>
    </g>
  </g>
</svg>
